#!OML:ASF E:\Style4\Style4.ASF
:FULLY-SPECIFIED
:DEGREES
3854
root -0.515867 17.5549 -1.65514 16.4987 9.3793 -2.3627
lowerback 17.4005 1.95693 -6.45444
upperback 8.94725 1.61055 -1.49075
thorax -0.270261 0.650798 1.78933
lowerneck -0.86753 -3.54085 -5.6838
upperneck 36.9284 -4.48165 1.74519
head 12.6039 -2.4737 1.24032
rclavicle 2.78299e-014 -2.54444e-014
rhumerus -31.2758 16.8382 -90.1289
rradius 66.8384
rwrist 4.11406
rhand 16.275 -1.57226
rfingers 7.12502
rthumb 41.0504 -26.4726
lclavicle 2.78299e-014 -2.54444e-014
lhumerus -42.2949 -7.62337 90.4129
lradius 72.692
lwrist 12.0271
lhand -18.5596 29.7168
lfingers 7.12502
lthumb 7.73025 59.5555
rfemur -38.0495 -0.725306 24.888
rtibia 39.0511
rfoot -18.0953 -16.8549
rtoes -4.21415
lfemur -42.4789 -6.39761 -12.0485
ltibia 41.9768
lfoot -16.496 8.45459
ltoes -17.9743
3855
root -0.488446 17.5586 -1.66373 16.702 9.49052 -2.03141
lowerback 17.5904 2.03222 -6.12915
upperback 9.20094 1.75686 -1.41739
thorax -0.104163 0.724684 1.65713
lowerneck -0.770068 -3.59188 -5.59733
upperneck 37.3526 -4.29493 0.993184
head 12.7446 -2.45332 0.956806
rclavicle 1.74931e-014 -3.02153e-014
rhumerus -31.0099 16.2224 -89.8891
rradius 67.2982
rwrist 4.81214
rhand 16.2502 -1.82655
rfingers 7.12502
rthumb 41.0272 -26.7343
lclavicle 1.74931e-014 -3.02153e-014
lhumerus -41.7797 -8.04895 90.5215
lradius 72.6886
lwrist 12.4513
lhand -18.3442 29.9158
lfingers 7.12502
lthumb 7.93818 59.7468
rfemur -38.3458 -0.782236 24.4099
rtibia 39.2486
rfoot -18.162 -16.9886
rtoes -4.12715
lfemur -42.5379 -6.4349 -12.5106
ltibia 41.6489
lfoot -16.292 8.29162
ltoes -17.7346
3856
root -0.460888 17.5639 -1.67297 16.9139 9.59951 -1.66882
lowerback 17.8127 2.04944 -5.89148
upperback 9.42645 1.81184 -1.33192
thorax 0.0214919 0.752401 1.60176
lowerneck -0.499656 -3.69973 -5.6949
upperneck 37.7708 -4.1742 0.254788
head 12.8613 -2.48673 0.704414
rclavicle -1.23246e-014 7.95139e-016
rhumerus -30.7573 15.6616 -89.7332
rradius 67.7094
rwrist 5.76537
rhand 16.6732 -1.9743
rfingers 7.12502
rthumb 41.4242 -26.7544
lclavicle -1.23246e-014 7.95139e-016
lhumerus -41.2738 -8.27873 90.559
lradius 72.6067
lwrist 12.9413
lhand -18.0309 29.955
lfingers 7.12502
lthumb 8.2405 59.7743
rfemur -38.6411 -0.846278 23.9022
rtibia 39.4332
rfoot -18.1571 -17.177
rtoes -4.17463
lfemur -42.5778 -6.50356 -13.0051
ltibia 41.2876
lfoot -16.0922 8.16622
ltoes -17.8078
3857
root -0.436573 17.5704 -1.68601 17.1296 9.73063 -1.27124
lowerback 18.1594 1.97734 -5.80736
upperback 9.62468 1.71921 -1.21968
thorax 0.0622481 0.703751 1.68401
lowerneck -0.332351 -3.84374 -5.96151
upperneck 38.4568 -4.06195 -0.509263
head 13.132 -2.55362 0.462532
rclavicle 2.38542e-015 -1.59028e-014
rhumerus -30.4838 15.4717 -89.6039
rradius 68.1708
rwrist 6.58845
rhand 17.0103 -2.02357
rfingers 7.12502
rthumb 41.7404 -26.7
lclavicle 2.38542e-015 -1.59028e-014
lhumerus -40.8401 -8.33975 90.5463
lradius 72.6261
lwrist 13.4376
lhand -17.8158 29.8922
lfingers 7.12502
lthumb 8.44813 59.7033
rfemur -38.9359 -0.839257 23.3497
rtibia 39.6111
rfoot -18.1989 -17.4001
rtoes -3.67941
lfemur -42.6348 -6.61487 -13.5088
ltibia 40.9365
lfoot -15.8846 7.98402
ltoes -17.3469
3858
root -0.411807 17.5776 -1.69535 17.3456 9.85026 -0.881181
lowerback 18.4794 1.94801 -5.65981
upperback 9.82646 1.69354 -1.14636
thorax 0.118647 0.691356 1.67849
lowerneck -0.205944 -3.93121 -6.01132
upperneck 38.9537 -3.92714 -1.17298
head 13.3217 -2.56919 0.221513
rclavicle 2.06736e-014 -4.13472e-014
rhumerus -30.2892 15.3208 -89.3185
rradius 68.8172
rwrist 6.93593
rhand 17.1751 -2.38127
rfingers 7.12502
rthumb 41.895 -27.0064
lclavicle 2.06736e-014 -4.13472e-014
lhumerus -40.4446 -8.55883 90.5806
lradius 72.6833
lwrist 13.7567
lhand -17.6072 29.9327
lfingers 7.12502
lthumb 8.64936 59.7355
rfemur -39.2022 -0.899648 22.8259
rtibia 39.7791
rfoot -18.2024 -17.5879
rtoes -3.49378
lfemur -42.6651 -6.74733 -13.9959
ltibia 40.597
lfoot -15.6703 7.75049
ltoes -16.6217
3859
root -0.385827 17.5823 -1.70338 17.56 10.0265 -0.577945
lowerback 18.7078 1.90414 -5.40134
upperback 10.0689 1.6765 -1.03934
thorax 0.266289 0.684212 1.64743
lowerneck -0.0244434 -3.93458 -5.99987
upperneck 39.1414 -3.706 -1.79335
head 13.3545 -2.53076 7.64235e-005
rclavicle -9.14409e-015 3.97569e-015
rhumerus -30.0369 15.111 -88.9964
rradius 69.4011
rwrist 7.26819
rhand 17.2839 -2.55825
rfingers 7.12502
rthumb 41.997 -27.1493
lclavicle -9.14409e-015 3.97569e-015
lhumerus -39.9704 -8.80376 90.6255
lradius 72.713
lwrist 14.0102
lhand -17.2806 30.0826
lfingers 7.12502
lthumb 8.96456 59.8721
rfemur -39.4558 -0.920361 22.3803
rtibia 39.9199
rfoot -18.2857 -17.7991
rtoes -3.07067
lfemur -42.7499 -6.89768 -14.3715
ltibia 40.2897
lfoot -15.4344 7.59736
ltoes -16.6089
3860
root -0.360993 17.5818 -1.71591 17.8012 10.2143 -0.387106
lowerback 18.9787 1.82979 -5.10383
upperback 10.2732 1.62339 -0.860947
thorax 0.352356 0.660816 1.67537
lowerneck 0.0848891 -3.95845 -6.23937
upperneck 39.4647 -3.49741 -2.33176
head 13.4818 -2.52514 -0.15195
rclavicle -2.54444e-014 -1.78906e-014
rhumerus -29.857 14.9191 -88.7414
rradius 69.992
rwrist 7.77973
rhand 17.2842 -2.62524
rfingers 7.12502
rthumb 41.9972 -27.2162
lclavicle -2.54444e-014 -1.78906e-014
lhumerus -39.4044 -8.9557 90.6258
lradius 72.5802
lwrist 14.3074
lhand -17.0661 30.0475
lfingers 7.12502
lthumb 9.17159 59.828
rfemur -39.7858 -0.9032 22.0702
rtibia 40.0602
rfoot -18.2998 -18.0667
rtoes -3.09915
lfemur -42.9346 -6.99188 -14.6178
ltibia 40.0014
lfoot -15.1879 7.5342
ltoes -16.8744
3861
root -0.33544 17.5842 -1.72543 18.0481 10.2889 -0.160342
lowerback 19.2189 1.7687 -4.95014
upperback 10.4737 1.56689 -0.686016
thorax 0.449527 0.629954 1.78208
lowerneck 0.112543 -3.96577 -6.5447
upperneck 39.7873 -3.29064 -2.75913
head 13.6335 -2.51976 -0.252266
rclavicle 2.70347e-014 -2.72335e-014
rhumerus -29.7257 14.8524 -88.4909
rradius 70.6271
rwrist 8.28966
rhand 17.3018 -2.69024
rfingers 7.12502
rthumb 42.0137 -27.2757
lclavicle 2.70347e-014 -2.72335e-014
lhumerus -38.7742 -8.98369 90.6129
lradius 72.3658
lwrist 14.5798
lhand -16.848 29.9055
lfingers 7.12502
lthumb 9.38199 59.6767
rfemur -40.1165 -0.943679 21.7324
rtibia 40.2059
rfoot -18.2862 -18.2357
rtoes -3.50152
lfemur -43.069 -7.0041 -14.9433
ltibia 39.7019
lfoot -14.9817 7.44635
ltoes -16.9165
